<svg id="visual" viewBox="0 0 900 600" width="900" height="600" xmlns="http://www.w3.org/2000/svg" xmlns:xlink="http://www.w3.org/1999/xlink" version="1.1"><rect x="0" y="0" width="900" height="600" fill="#E8F1FC"></rect><defs><linearGradient id="grad1_0" x1="33.3%" y1="0%" x2="100%" y2="100%"><stop offset="20%" stop-color="#e8f1fc" stop-opacity="1"></stop><stop offset="80%" stop-color="#e8f1fc" stop-opacity="1"></stop></linearGradient></defs><defs><linearGradient id="grad2_0" x1="0%" y1="0%" x2="66.7%" y2="100%"><stop offset="20%" stop-color="#e8f1fc" stop-opacity="1"></stop><stop offset="80%" stop-color="#e8f1fc" stop-opacity="1"></stop></linearGradient></defs><g transform="translate(900, 0)"><path d="M0 321C-64.2 326.6 -128.5 332.1 -175.8 304.4C-223.1 276.7 -253.4 215.8 -276.3 159.5C-299.1 103.2 -314.6 51.6 -330 0L0 0Z" fill="#75ADF1"></path></g><g transform="translate(0, 600)"><path d="M0 -332C54.9 -322.2 109.9 -312.4 166.5 -288.4C223.1 -264.4 281.4 -226.2 304.4 -175.8C327.5 -125.3 315.2 -62.7 303 0L0 0Z" fill="#75ADF1"></path></g></svg>